<svg height="480" width="640" xmlns="http://www.w3.org/2000/svg" xmlns:xlink="http://www.w3.org/1999/xlink"><clipPath id="a"><path d="m0 .000005h682.67v512h-682.67z"/></clipPath><g clip-path="url(#a)" fill-rule="evenodd" transform="matrix(.9375 0 0 .9375 0 -.000005)"><g stroke-width="1pt" transform="matrix(3.9385 0 0 3.9385 0 .000005)"><g fill="#bd3d44"><path d="m0 0h247v10h-247z"/><path d="m0 20h247v10h-247z"/><path d="m0 40h247v10h-247z"/><path d="m0 60h247v10h-247z"/><path d="m0 80h247v10h-247z"/><path d="m0 100h247v10h-247z"/><path d="m0 120h247v10h-247z"/></g><g fill="#fff"><path d="m0 10h247v10h-247z"/><path d="m0 30h247v10h-247z"/><path d="m0 50h247v10h-247z"/><path d="m0 70h247v10h-247z"/><path d="m0 90h247v10h-247z"/><path d="m0 110h247v10h-247z"/></g></g><path d="m0 .000005h389.12v275.69h-389.12z" fill="#192f5d" stroke-width="1pt"/><g fill="#fff" transform="matrix(3.9385 0 0 3.9385 0 .000005)"><path d="m0-4.004.89895 2.7667h2.90905l-2.3535 1.70991.899 2.76669-2.3535-1.7099-2.3535 1.7099.899-2.76669-2.3535-1.70991h2.90905z" transform="translate(8.2333 7)"/><path d="m0-4.004.89895 2.7667h2.90905l-2.3535 1.70991.899 2.76669-2.3535-1.7099-2.3535 1.7099.899-2.76669-2.3535-1.70991h2.90905z" transform="translate(24.7 7)"/><path d="m0-4.004.89895 2.7667h2.90905l-2.3535 1.70991.899 2.76669-2.3535-1.7099-2.3535 1.7099.899-2.76669-2.3535-1.70991h2.90905z" transform="translate(41.167 7)"/><path d="m0-4.004.89895 2.7667h2.90905l-2.3535 1.70991.899 2.76669-2.3535-1.7099-2.3535 1.7099.899-2.76669-2.3535-1.70991h2.90905z" transform="translate(57.633 7)"/><path d="m0-4.004.89895 2.7667h2.90905l-2.3535 1.70991.899 2.76669-2.3535-1.7099-2.3535 1.7099.899-2.76669-2.3535-1.70991h2.90905z" transform="translate(74.1 7)"/><path d="m0-4.004.89895 2.7667h2.90905l-2.3535 1.70991.899 2.76669-2.3535-1.7099-2.3535 1.7099.899-2.76669-2.3535-1.70991h2.90905z" transform="translate(90.567 7)"/><path d="m0-4.004.89895 2.7667h2.90905l-2.3535 1.70991.899 2.76669-2.3535-1.7099-2.3535 1.7099.899-2.76669-2.3535-1.70991h2.90905z" transform="translate(16.467 14)"/><path d="m0-4.004.89895 2.7667h2.90905l-2.3535 1.70991.899 2.76669-2.3535-1.7099-2.3535 1.7099.899-2.76669-2.3535-1.70991h2.90905z" transform="translate(32.933 14)"/><path d="m0-4.004.89895 2.7667h2.90905l-2.3535 1.70991.899 2.76669-2.3535-1.7099-2.3535 1.7099.899-2.76669-2.3535-1.70991h2.90905z" transform="translate(49.4 14)"/><path d="m0-4.004.89895 2.7667h2.90905l-2.3535 1.70991.899 2.76669-2.3535-1.7099-2.3535 1.7099.899-2.76669-2.3535-1.70991h2.90905z" transform="translate(65.867 14)"/><path d="m0-4.004.89895 2.7667h2.90905l-2.3535 1.70991.899 2.76669-2.3535-1.7099-2.3535 1.7099.899-2.76669-2.3535-1.70991h2.90905z" transform="translate(82.333 14)"/><path d="m0-4.004.89895 2.7667h2.90905l-2.3535 1.70991.899 2.76669-2.3535-1.7099-2.3535 1.7099.899-2.76669-2.3535-1.70991h2.90905z" transform="translate(8.2333 21)"/><path d="m0-4.004.89895 2.7667h2.90905l-2.3535 1.70991.899 2.76669-2.3535-1.7099-2.3535 1.7099.899-2.76669-2.3535-1.70991h2.90905z" transform="translate(24.7 21)"/><path d="m0-4.004.89895 2.7667h2.90905l-2.3535 1.70991.899 2.76669-2.3535-1.7099-2.3535 1.7099.899-2.76669-2.3535-1.70991h2.90905z" transform="translate(41.167 21)"/><path d="m0-4.004.89895 2.7667h2.90905l-2.3535 1.70991.899 2.76669-2.3535-1.7099-2.3535 1.7099.899-2.76669-2.3535-1.70991h2.90905z" transform="translate(57.633 21)"/><path d="m0-4.004.89895 2.7667h2.90905l-2.3535 1.70991.899 2.76669-2.3535-1.7099-2.3535 1.7099.899-2.76669-2.3535-1.70991h2.90905z" transform="translate(74.1 21)"/><path d="m0-4.004.89895 2.7667h2.90905l-2.3535 1.70991.899 2.76669-2.3535-1.7099-2.3535 1.7099.899-2.76669-2.3535-1.70991h2.90905z" transform="translate(90.567 21)"/><path d="m0-4.004.89895 2.7667h2.90905l-2.3535 1.70991.899 2.76669-2.3535-1.7099-2.3535 1.7099.899-2.76669-2.3535-1.70991h2.90905z" transform="translate(16.467 28)"/><path d="m0-4.004.89895 2.7667h2.90905l-2.3535 1.70991.899 2.76669-2.3535-1.7099-2.3535 1.7099.899-2.76669-2.3535-1.70991h2.90905z" transform="translate(32.933 28)"/><path d="m0-4.004.89895 2.7667h2.90905l-2.3535 1.70991.899 2.76669-2.3535-1.7099-2.3535 1.7099.899-2.76669-2.3535-1.70991h2.90905z" transform="translate(49.4 28)"/><path d="m0-4.004.89895 2.7667h2.90905l-2.3535 1.70991.899 2.76669-2.3535-1.7099-2.3535 1.7099.899-2.76669-2.3535-1.70991h2.90905z" transform="translate(65.867 28)"/><path d="m0-4.004.89895 2.7667h2.90905l-2.3535 1.70991.899 2.76669-2.3535-1.7099-2.3535 1.7099.899-2.76669-2.3535-1.70991h2.90905z" transform="translate(82.333 28)"/><path d="m0-4.004.89895 2.7667h2.90905l-2.3535 1.70991.899 2.76669-2.3535-1.7099-2.3535 1.7099.899-2.76669-2.3535-1.70991h2.90905z" transform="translate(8.2333 35)"/><path d="m0-4.004.89895 2.7667h2.90905l-2.3535 1.70991.899 2.76669-2.3535-1.7099-2.3535 1.7099.899-2.76669-2.3535-1.70991h2.90905z" transform="translate(24.7 35)"/><path d="m0-4.004.89895 2.7667h2.90905l-2.3535 1.70991.899 2.76669-2.3535-1.7099-2.3535 1.7099.899-2.76669-2.3535-1.70991h2.90905z" transform="translate(41.167 35)"/><path d="m0-4.004.89895 2.7667h2.90905l-2.3535 1.70991.899 2.76669-2.3535-1.7099-2.3535 1.7099.899-2.76669-2.3535-1.70991h2.90905z" transform="translate(57.633 35)"/><path d="m0-4.004.89895 2.7667h2.90905l-2.3535 1.70991.899 2.76669-2.3535-1.7099-2.3535 1.7099.899-2.76669-2.3535-1.70991h2.90905z" transform="translate(74.1 35)"/><path d="m0-4.004.89895 2.7667h2.90905l-2.3535 1.70991.899 2.76669-2.3535-1.7099-2.3535 1.7099.899-2.76669-2.3535-1.70991h2.90905z" transform="translate(90.567 35)"/><path d="m0-4.004.89895 2.7667h2.90905l-2.3535 1.70991.899 2.76669-2.3535-1.7099-2.3535 1.7099.899-2.76669-2.3535-1.70991h2.90905z" transform="translate(16.467 42)"/><path d="m0-4.004.89895 2.7667h2.90905l-2.3535 1.70991.899 2.76669-2.3535-1.7099-2.3535 1.7099.899-2.76669-2.3535-1.70991h2.90905z" transform="translate(32.933 42)"/><path d="m0-4.004.89895 2.7667h2.90905l-2.3535 1.70991.899 2.76669-2.3535-1.7099-2.3535 1.7099.899-2.76669-2.3535-1.70991h2.90905z" transform="translate(49.4 42)"/><path d="m0-4.004.89895 2.7667h2.90905l-2.3535 1.70991.899 2.76669-2.3535-1.7099-2.3535 1.7099.899-2.76669-2.3535-1.70991h2.90905z" transform="translate(65.867 42)"/><path d="m0-4.004.89895 2.7667h2.90905l-2.3535 1.70991.899 2.76669-2.3535-1.7099-2.3535 1.7099.899-2.76669-2.3535-1.70991h2.90905z" transform="translate(82.333 42)"/><path d="m0-4.004.89895 2.7667h2.90905l-2.3535 1.70991.899 2.76669-2.3535-1.7099-2.3535 1.7099.899-2.76669-2.3535-1.70991h2.90905z" transform="translate(8.2333 49)"/><path d="m0-4.004.89895 2.7667h2.90905l-2.3535 1.70991.899 2.76669-2.3535-1.7099-2.3535 1.7099.899-2.76669-2.3535-1.70991h2.90905z" transform="translate(24.7 49)"/><path d="m0-4.004.89895 2.7667h2.90905l-2.3535 1.70991.899 2.76669-2.3535-1.7099-2.3535 1.7099.899-2.76669-2.3535-1.70991h2.90905z" transform="translate(41.167 49)"/><path d="m0-4.004.89895 2.7667h2.90905l-2.3535 1.70991.899 2.76669-2.3535-1.7099-2.3535 1.7099.899-2.76669-2.3535-1.70991h2.90905z" transform="translate(57.633 49)"/><path d="m0-4.004.89895 2.7667h2.90905l-2.3535 1.70991.899 2.76669-2.3535-1.7099-2.3535 1.7099.899-2.76669-2.3535-1.70991h2.90905z" transform="translate(74.1 49)"/><path d="m0-4.004.89895 2.7667h2.90905l-2.3535 1.70991.899 2.76669-2.3535-1.7099-2.3535 1.7099.899-2.76669-2.3535-1.70991h2.90905z" transform="translate(90.567 49)"/><path d="m0-4.004.89895 2.7667h2.90905l-2.3535 1.70991.899 2.76669-2.3535-1.7099-2.3535 1.7099.899-2.76669-2.3535-1.70991h2.90905z" transform="translate(16.467 56)"/><path d="m0-4.004.89895 2.7667h2.90905l-2.3535 1.70991.899 2.76669-2.3535-1.7099-2.3535 1.7099.899-2.76669-2.3535-1.70991h2.90905z" transform="translate(32.933 56)"/><path d="m0-4.004.89895 2.7667h2.90905l-2.3535 1.70991.899 2.76669-2.3535-1.7099-2.3535 1.7099.899-2.76669-2.3535-1.70991h2.90905z" transform="translate(49.4 56)"/><path d="m0-4.004.89895 2.7667h2.90905l-2.3535 1.70991.899 2.76669-2.3535-1.7099-2.3535 1.7099.899-2.76669-2.3535-1.70991h2.90905z" transform="translate(65.867 56)"/><path d="m0-4.004.89895 2.7667h2.90905l-2.3535 1.70991.899 2.76669-2.3535-1.7099-2.3535 1.7099.899-2.76669-2.3535-1.70991h2.90905z" transform="translate(82.333 56)"/><path d="m0-4.004.89895 2.7667h2.90905l-2.3535 1.70991.899 2.76669-2.3535-1.7099-2.3535 1.7099.899-2.76669-2.3535-1.70991h2.90905z" transform="translate(8.2333 63)"/><path d="m0-4.004.89895 2.7667h2.90905l-2.3535 1.70991.899 2.76669-2.3535-1.7099-2.3535 1.7099.899-2.76669-2.3535-1.70991h2.90905z" transform="translate(24.7 63)"/><path d="m0-4.004.89895 2.7667h2.90905l-2.3535 1.70991.899 2.76669-2.3535-1.7099-2.3535 1.7099.899-2.76669-2.3535-1.70991h2.90905z" transform="translate(41.167 63)"/><path d="m0-4.004.89895 2.7667h2.90905l-2.3535 1.70991.899 2.76669-2.3535-1.7099-2.3535 1.7099.899-2.76669-2.3535-1.70991h2.90905z" transform="translate(57.633 63)"/><path d="m0-4.004.89895 2.7667h2.90905l-2.3535 1.70991.899 2.76669-2.3535-1.7099-2.3535 1.7099.899-2.76669-2.3535-1.70991h2.90905z" transform="translate(74.1 63)"/><path d="m0-4.004.89895 2.7667h2.90905l-2.3535 1.70991.899 2.76669-2.3535-1.7099-2.3535 1.7099.899-2.76669-2.3535-1.70991h2.90905z" transform="translate(90.567 63)"/></g></g></svg>